<svg xmlns="http://www.w3.org/2000/svg" viewBox="0 0 1911.83 1911.83"><defs><style>.cls-1{fill:none;}.cls-2{fill:#c9c4dd;}</style></defs><g id="圖層_2" data-name="圖層 2"><g id="圖層_3" data-name="圖層 3"><rect class="cls-1" width="1911.83" height="1911.83"/><path class="cls-2" d="M264,641a.86.86,0,0,1-.07-.1,4.41,4.41,0,0,0-.36-.49l-.18-.2a5.14,5.14,0,0,0-.42-.38.83.83,0,0,0-.15-.11,4,4,0,0,0-.67-.39l-.09,0a3.68,3.68,0,0,0-.69-.22l-.06,0h-.05a3.47,3.47,0,0,0-.79-.07h0l-97,2.14a4,4,0,0,0-2.37.84L26.33,746.54h0a5.22,5.22,0,0,0-.43.39l-.12.15a1.76,1.76,0,0,0-.24.3,2.14,2.14,0,0,0-.13.19l-.1.15a1.11,1.11,0,0,0-.07.16l-.1.2c-.05.12-.1.24-.14.36l-.06.18a4,4,0,0,0-.1.5.13.13,0,0,0,0,.06,2.73,2.73,0,0,0,0,.57,1,1,0,0,0,0,.17,2.85,2.85,0,0,0,0,.41,1.77,1.77,0,0,0,0,.2c0,.13.06.26.1.38l0,.12,0,.07c.05.13.11.25.17.38l.08.16,0,0,90.36,158.41a4,4,0,0,0,3.47,2h.09l97-2.14a3.41,3.41,0,0,0,.55-.05l.11,0a4.05,4.05,0,0,0,.47-.12l.18-.07.38-.16.18-.09a4,4,0,0,0,.43-.29l.06,0L353.38,804.54a4,4,0,0,0,1-5.14ZM165,649.08l83.55-1.84L179.12,701.1l-54.77,42.5-83.54,1.84ZM35.58,753.55l87.89-1.93,62.19,109,23.66,41.47-87.89,1.94ZM217.31,900,131,748.6,245.2,660l14.17-11,86.36,151.39Z"/><path class="cls-2" d="M1633.9,130.61v0a4.78,4.78,0,0,0,.13.74,1,1,0,0,0,0,.14,4.12,4.12,0,0,0,.27.69l.06.11a4.33,4.33,0,0,0,.41.61l0,0,36.37,43.19a4,4,0,0,0,5.18.81l51.18-32a.24.24,0,0,1,.08-.06,4,4,0,0,0,.5-.4l.16-.16a3.64,3.64,0,0,0,.4-.48l.09-.12a3.83,3.83,0,0,0,.34-.67c0-.06,0-.12.07-.18a3.52,3.52,0,0,0,.15-.58s0-.08,0-.12v-.09a4.53,4.53,0,0,0,0-.74v0h0l-2-32a4,4,0,0,0-.93-2.33l-36.37-43.18h0a3.87,3.87,0,0,0-.4-.41l-.15-.12a3.55,3.55,0,0,0-.31-.23l-.2-.12-.16-.09-.15-.07-.21-.09-.36-.12-.19-.05a2.64,2.64,0,0,0-.49-.08l-.07,0h-.57l-.17,0-.41,0-.19.05a2.91,2.91,0,0,0-.39.12l-.11,0-.07,0-.39.19L1685,63l0,0-51.18,32a4,4,0,0,0-1.87,3.64l2,32Zm41.19,37.72-31.16-37,44.32-27.7,31.17,37Zm44.45-57.22,1.16,18.62L1693,96.83l-1.16-18.63Zm-36-37.8,1.43,23-43.46,27.16-1.43-23Z"/><path class="cls-2" d="M1767.13,942.38c0-.12,0-.25.07-.38l0-.23a1,1,0,0,1,0-.17c0-.06,0-.12,0-.18v-.23c0-.12,0-.24,0-.36l0-.21c0-.15-.08-.3-.13-.45a.54.54,0,0,0,0-.1,3.82,3.82,0,0,0-.23-.51.83.83,0,0,0-.09-.16,3.78,3.78,0,0,0-.22-.33l-.12-.17-.27-.29-.08-.09-.06,0a2.88,2.88,0,0,0-.34-.27l-.13-.1,0,0-81.8-53.54a4,4,0,0,0-4.09-.18l-45.76,24.7a4.49,4.49,0,0,0-.62.42l-.12.1a4.18,4.18,0,0,0-.5.53l-.08.11a3.4,3.4,0,0,0-.38.63l0,0-38.8,82.83a4,4,0,0,0,1.43,5l81.79,53.55h0l.13.07a3.23,3.23,0,0,0,.49.25l.2.08a4.12,4.12,0,0,0,.47.13l.2.05a5.05,5.05,0,0,0,.67.06h0a2.92,2.92,0,0,0,.51,0,.76.76,0,0,0,.16,0l.37-.07h0l.06,0a4.11,4.11,0,0,0,.73-.29h0l45.77-24.7a3.94,3.94,0,0,0,1.72-1.82l38.8-82.83h0a3.5,3.5,0,0,0,.2-.54C1767.1,942.51,1767.11,942.45,1767.13,942.38Zm-85.87-49.85,74.18,48.56-37.76,20.38-1.07-.7-73.11-47.86Zm-43.9,25.92,75,49.12L1677,1043.08,1602,994Zm84,102.91-33.94,18.32,5.38-11.49L1720.55,969l33.94-18.31Z"/><path class="cls-2" d="M585.3,1542.2h0a4.48,4.48,0,0,0-.58-.48.57.57,0,0,0-.13-.08,3.28,3.28,0,0,0-.64-.34l-.14,0a4,4,0,0,0-.7-.18h0l-67.95-10.61a4,4,0,0,0-4.44,2.78l-21.46,70.3s0,.07,0,.11a3.5,3.5,0,0,0-.12.63c0,.07,0,.15,0,.22a4.42,4.42,0,0,0,0,.63.71.71,0,0,0,0,.14,3.12,3.12,0,0,0,.18.73,1.34,1.34,0,0,0,.07.18,4.43,4.43,0,0,0,.26.54,1.33,1.33,0,0,0,.06.12s0,0,.05.07a4.9,4.9,0,0,0,.45.57l0,0h0l27.44,27.85a4,4,0,0,0,2.23,1.14l67.95,10.6a3.14,3.14,0,0,0,.61.05h0a4.36,4.36,0,0,0,.51,0l.18,0,.26,0,.07,0,.22-.07.29-.11.2-.09.27-.14.19-.12.25-.18.18-.15.21-.2a1.29,1.29,0,0,0,.16-.17,2.11,2.11,0,0,0,.19-.23l.14-.19.16-.26a.57.57,0,0,1,.08-.13.26.26,0,0,1,0-.08,2.5,2.5,0,0,0,.15-.38,1.22,1.22,0,0,0,.07-.17v0l21.46-70.3a4,4,0,0,0-1-4Zm-68-3.32,60,9.36-19.1,62.57-60-9.36Zm5.09,89.91-18-18.28,13.42,2.1,41.25,6.43,18,18.28Zm64.16,6.76-21.06-21.36,18.81-61.6L605.37,1574Z"/></g></g></svg>