<svg xmlns="http://www.w3.org/2000/svg" viewBox="0 0 1911.83 1911.83"><defs><style>.cls-1{fill:#ece9f4;}.cls-2{fill:#d9d3e9;}</style></defs><g id="圖層_2" data-name="圖層 2"><g id="圖層_2-2" data-name="圖層 2"><rect class="cls-1" width="1911.83" height="1911.83"/><path class="cls-2" d="M1911.83,0V668.76L1653.38,818A64.48,64.48,0,1,1,1588.9,706.3L1767,603.48a12.22,12.22,0,0,0,4-17.4,12.52,12.52,0,0,0-16.63-3.58L1471.18,746A12.23,12.23,0,0,1,1457,726.27l161.15-93a15.93,15.93,0,0,0-15.93-27.59l-236.94,136.8a71.09,71.09,0,1,1-71.09-123.14l286-165.13a34.41,34.41,0,0,0-34.41-59.59l-100.62,58.09a80.27,80.27,0,1,1-80.27-139l182.06-105.11a36.7,36.7,0,1,0-36.7-63.56L1150.07,352.91a36.69,36.69,0,1,1-36.69-63.55L1614.56,0Z"/><path class="cls-2" d="M663.64,1761,402.4,1911.83H0V1303.77l123.64-71.39a64.48,64.48,0,1,1,64.48,111.68L10,1446.88a12.22,12.22,0,0,0-4,17.4,12.52,12.52,0,0,0,16.63,3.58l283.24-163.53a12.23,12.23,0,0,1,14.22,19.76l-161.15,93a15.93,15.93,0,0,0,15.93,27.59l236.94-136.8a71.09,71.09,0,1,1,71.09,123.14l-286,165.13a34.41,34.41,0,0,0,34.41,59.59l100.62-58.09a80.27,80.27,0,1,1,80.27,139L230.09,1841.83a36.7,36.7,0,1,0,36.7,63.56L627,1697.45A36.69,36.69,0,1,1,663.64,1761Z"/><path class="cls-2" d="M1713,1188.81a32.17,32.17,0,1,0,32.17,55.72l69-39.83a32.17,32.17,0,1,1,32.17,55.72l-139.41,80.49a32.18,32.18,0,0,0,32.18,55.73l172.74-99.73V1074.35Z"/><rect class="cls-2" x="1560.54" y="1485.22" width="281.87" height="52.09" rx="26.04" transform="translate(-527.68 1053.21) rotate(-30)"/><path class="cls-2" d="M54.55,552.88l44.64-25.77A13.27,13.27,0,0,0,119.09,538L338.43,411.39a13.28,13.28,0,0,0-13.27-23l-44.64,25.78a13.27,13.27,0,0,0-1.76-6.06h0a13.28,13.28,0,0,0-18.14-4.86L41.28,529.89A13.26,13.26,0,0,0,36.42,548h0A13.26,13.26,0,0,0,54.55,552.88Z"/><path class="cls-2" d="M1196.84,31.93a58.41,58.41,0,1,0,58.4,58.41A58.47,58.47,0,0,0,1196.84,31.93Zm0,106.81a48.41,48.41,0,1,1,48.4-48.4A48.45,48.45,0,0,1,1196.84,138.74Z"/><path class="cls-2" d="M87.14,381.61a31.71,31.71,0,1,0,31.71,31.7A31.74,31.74,0,0,0,87.14,381.61Zm0,53.41a21.71,21.71,0,1,1,21.71-21.71A21.73,21.73,0,0,1,87.14,435Z"/><path class="cls-2" d="M1701.47,1100.15a21.4,21.4,0,1,0,21.4,21.4A21.42,21.42,0,0,0,1701.47,1100.15Zm0,32.8a11.4,11.4,0,1,1,11.4-11.4A11.41,11.41,0,0,1,1701.47,1133Z"/><path class="cls-2" d="M1801.32,1728.06a58.41,58.41,0,1,0,58.41,58.41A58.47,58.47,0,0,0,1801.32,1728.06Zm0,106.81a48.41,48.41,0,1,1,48.41-48.4A48.45,48.45,0,0,1,1801.32,1834.87Z"/><polygon class="cls-2" points="1614.56 1911.83 1911.83 1733.06 1911.83 1911.83 1614.56 1911.83"/><polygon class="cls-2" points="402.4 0 0 224.13 0 0 402.4 0"/></g></g></svg>