<svg id="圖層_1" data-name="圖層 1" xmlns="http://www.w3.org/2000/svg" viewBox="0 0 294.83 60.6"><defs><style>.cls-1{fill:#040000;}</style></defs><rect class="cls-1" x="239.36" y="12.91" width="10.04" height="46.73"/><path class="cls-1" d="M263.68,241.73v-.12H227A13,13,0,0,0,215.89,248l-19.2,42.78a2.83,2.83,0,0,1-2.32,1.24,2.76,2.76,0,0,1-2.4-1.34L170.6,241.52H159.66l23.18,53.32.14.32a12.8,12.8,0,0,0,11.39,6.89,12.94,12.94,0,0,0,11.09-6.37l19.19-42.78a2.8,2.8,0,0,1,2.33-1.25h34.86a8.93,8.93,0,0,1-.14,17.85H240v10h22.87l.84-.05v-.06a19,19,0,0,0,0-37.7Z" transform="translate(-159.66 -241.52)"/><path class="cls-1" d="M435.53,269.5H412.12v10h23.41a19,19,0,0,0,0-37.93H398.84v10h36.69a8.93,8.93,0,0,1,0,17.85Z" transform="translate(-159.66 -241.52)"/><path class="cls-1" d="M453.73,276.61l-9.39,3.93.07.62a7.32,7.32,0,0,1,0,.81,9,9,0,0,1-8.77,8.92H412.34v10h23.41l.84,0v0A19,19,0,0,0,454.49,282a18,18,0,0,0-.53-4.42Z" transform="translate(-159.66 -241.52)"/><path class="cls-1" d="M249.86,288.65V282.1h-10v6.55a13.48,13.48,0,0,0,13.47,13.47h11.3v-10h-11.3A3.44,3.44,0,0,1,249.86,288.65Z" transform="translate(-159.66 -241.52)"/><path class="cls-1" d="M301,287.54v-46H291v46a14.54,14.54,0,0,0,14.52,14.51h24.88V292H305.51A4.48,4.48,0,0,1,301,287.54Z" transform="translate(-159.66 -241.52)"/><path class="cls-1" d="M373.71,249.48c-2-4.87-6.07-7.92-10.73-7.95s-8.64,3-10.68,7.87l-14.71,52.72h10.46L361.65,253c.47-1.05,1-1.46,1.31-1.46s.89.45,1.33,1.42l13.14,49.13h10.43l-14-52.16Z" transform="translate(-159.66 -241.52)"/><circle class="cls-1" cx="203.07" cy="40.97" r="5.89"/></svg>